{
  "accessors": [
    {
      "bufferView": 2,
      "componentType": 5126,
      "count": 8868,
      "max": [
        1.5218040943145752,
        3.4885618686676025,
        1.8534165620803833
      ],
      "min": [
        -1.5218040943145752,
        -3.4885618686676025,
        -1.8534165620803833
      ],
      "type": "VEC3"
    },
    {
      "bufferView": 2,
      "byteOffset": 106416,
      "componentType": 5126,
      "count": 8868,
      "max": [
        1,
        1,
        1
      ],
      "min": [
        -1,
        -1,
        -1
      ],
      "type": "VEC3"
    },
    {
      "bufferView": 3,
      "componentType": 5126,
      "count": 8868,
      "max": [
        1,
        1,
        1,
        1
      ],
      "min": [
        -0.98514008522033691,
        -1,
        -1,
        -1
      ],
      "type": "VEC4"
    },
    {
      "bufferView": 1,
      "componentType": 5126,
      "count": 8868,
      "max": [
        0.99111217260360718,
        0.96296429634094238
      ],
      "min": [
        0.0019920321647077799,
        0.014184217900037766
      ],
      "type": "VEC2"
    },
    {
      "bufferView": 0,
      "componentType": 5125,
      "count": 40110,
      "max": [
        8867
      ],
      "min": [
        0
      ],
      "type": "SCALAR"
    }
  ],
  "asset": {
    "extras": {
      "author": "Ankush4135 (https://sketchfab.com/Ankush4135)",
      "license": "CC-BY-4.0 (http://creativecommons.org/licenses/by/4.0/)",
      "source": "https://sketchfab.com/3d-models/coffee-machine-e79abaec13984dfcbbb574ac8927583a",
      "title": "Coffee Machine"
    },
    "generator": "Sketchfab-7.91.0",
    "version": "2.0"
  },
  "bufferViews": [
    {
      "buffer": 0,
      "byteLength": 160440,
      "byteOffset": 0,
      "name": "floatBufferViews",
      "target": 34963
    },
    {
      "buffer": 0,
      "byteLength": 70944,
      "byteOffset": 160440,
      "byteStride": 8,
      "name": "floatBufferViews",
      "target": 34962
    },
    {
      "buffer": 0,
      "byteLength": 212832,
      "byteOffset": 231384,
      "byteStride": 12,
      "name": "floatBufferViews",
      "target": 34962
    },
    {
      "buffer": 0,
      "byteLength": 141888,
      "byteOffset": 444216,
      "byteStride": 16,
      "name": "floatBufferViews",
      "target": 34962
    }
  ],
  "buffers": [
    {
      "byteLength": 586104,
      "uri": "scene.bin"
    }
  ],
  "images": [
    {
      "uri": "textures/Coffee_Machine1_baseColor.png"
    },
    {
      "uri": "textures/Coffee_Machine1_metallicRoughness.png"
    },
    {
      "uri": "textures/Coffee_Machine1_normal.png"
    }
  ],
  "materials": [
    {
      "doubleSided": true,
      "name": "Coffee_Machine1",
      "normalTexture": {
        "index": 2,
        "scale": 1,
        "texCoord": 0
      },
      "pbrMetallicRoughness": {
        "baseColorFactor": [
          1,
          1,
          1,
          1
        ],
        "baseColorTexture": {
          "index": 0,
          "texCoord": 0
        },
        "metallicFactor": 1,
        "metallicRoughnessTexture": {
          "index": 1,
          "texCoord": 0
        },
        "roughnessFactor": 1
      }
    }
  ],
  "meshes": [
    {
      "name": "Coffee_Machine_Coffee_Machine1_0",
      "primitives": [
        {
          "attributes": {
            "NORMAL": 1,
            "POSITION": 0,
            "TANGENT": 2,
            "TEXCOORD_0": 3
          },
          "indices": 4,
          "material": 0,
          "mode": 4
        }
      ]
    }
  ],
  "nodes": [
    {
      "children": [
        1
      ],
      "name": "RootNode (gltf orientation matrix)",
      "rotation": [
        -0.70710678118654746,
        -0,
        -0,
        0.70710678118654757
      ]
    },
    {
      "children": [
        2
      ],
      "name": "RootNode (model correction matrix)"
    },
    {
      "children": [
        3
      ],
      "matrix": [
        1,
        0,
        0,
        0,
        0,
        0,
        1,
        0,
        0,
        -1,
        0,
        0,
        0,
        0,
        0,
        1
      ],
      "name": "93179f07878a47b5bc9ef254ab008ffd.fbx"
    },
    {
      "children": [
        4
      ],
      "name": "RootNode"
    },
    {
      "children": [
        5
      ],
      "matrix": [
        1,
        0,
        0,
        0,
        0,
        1,
        0,
        0,
        0,
        0,
        1,
        0,
        -0.00026613473892211914,
        3.6095268726348877,
        -0.14807450771331787,
        1
      ],
      "name": "Coffee_Machine"
    },
    {
      "mesh": 0,
      "name": "Coffee_Machine_Coffee_Machine1_0"
    }
  ],
  "samplers": [
    {
      "magFilter": 9729,
      "minFilter": 9987,
      "wrapS": 10497,
      "wrapT": 10497
    }
  ],
  "scene": 0,
  "scenes": [
    {
      "name": "OSG_Scene",
      "nodes": [
        0
      ]
    }
  ],
  "textures": [
    {
      "sampler": 0,
      "source": 0
    },
    {
      "sampler": 0,
      "source": 1
    },
    {
      "sampler": 0,
      "source": 2
    }
  ]
}

