{
    "asset": {
        "copyright": "2020 (c) Adobe Inc.",
        "generator": "Adobe Dimension - 5769982f30ff13dfba89076b81240843d8e6af81",
        "version": "2.0"
    },
    "accessors": [
        {
            "bufferView": 0,
            "componentType": 5126,
            "count": 25236,
            "type": "VEC3",
            "max": [
                0.493257611989975,
                1.1904327869415284,
                1.496970534324646
            ],
            "min": [
                -0.493257611989975,
                0.0,
                -1.496970534324646
            ]
        },
        {
            "bufferView": 1,
            "componentType": 5126,
            "count": 25236,
            "type": "VEC3"
        },
        {
            "bufferView": 2,
            "componentType": 5126,
            "count": 25236,
            "type": "VEC2"
        },
        {
            "bufferView": 3,
            "componentType": 5125,
            "count": 37680,
            "type": "SCALAR",
            "max": [
                25235.0
            ],
            "min": [
                0.0
            ]
        }
    ],
    "bufferViews": [
        {
            "buffer": 0,
            "byteOffset": 0,
            "byteLength": 302832,
            "target": 34962
        },
        {
            "buffer": 0,
            "byteOffset": 302832,
            "byteLength": 302832,
            "target": 34962
        },
        {
            "buffer": 0,
            "byteOffset": 605664,
            "byteLength": 201888,
            "target": 34962
        },
        {
            "buffer": 0,
            "byteOffset": 807552,
            "byteLength": 150720,
            "target": 34963
        }
    ],
    "buffers": [
        {
            "byteLength": 958272,
            "uri": "triceratopo_binary.bin"
        }
    ],
    "cameras": [
        {
            "perspective": {
                "znear": 0.000010000000656873454,
                "yfov": 0.6024156808853149,
                "zfar": 2.0,
                "aspectRatio": 1.3333333730697632
            },
            "type": "perspective",
            "name": "render_camera"
        }
    ],
    "images": [
        {
            "name": "triceratops_Mat_baseColor",
            "uri": "triceratopo_images\\triceratops_Mat_baseColor.jpg",
            "mimeType": "image/jpeg"
        },
        {
            "name": "image",
            "uri": "triceratopo_images\\image.png",
            "mimeType": "image/png"
        },
        {
            "name": "triceratops_Mat_normal",
            "uri": "triceratopo_images\\triceratops_Mat_normal.png",
            "mimeType": "image/png"
        }
    ],
    "materials": [
        {
            "pbrMetallicRoughness": {
                "baseColorTexture": {
                    "index": 0
                },
                "metallicFactor": 0.0,
                "metallicRoughnessTexture": {
                    "index": 1
                }
            },
            "normalTexture": {
                "index": 2
            },
            "name": "triceratops_mat",
            "doubleSided": true
        }
    ],
    "meshes": [
        {
            "name": "Triceratops",
            "primitives": [
                {
                    "attributes": {
                        "POSITION": 0,
                        "NORMAL": 1,
                        "TEXCOORD_0": 2
                    },
                    "indices": 3,
                    "material": 0
                }
            ]
        }
    ],
    "nodes": [
        {
            "translation": [
                0.2798057794570923,
                0.07520833611488342,
                0.3383534848690033
            ],
            "rotation": [
                0.025988532230257989,
                0.3141546845436096,
                -0.00860337819904089,
                0.9489770531654358
            ],
            "camera": 0,
            "name": "render_camera_n3d"
        },
        {
            "scale": [
                0.099339559674263,
                0.09996363520622254,
                0.09986836463212967
            ],
            "mesh": 0,
            "name": "Triceratops"
        }
    ],
    "samplers": [
        {},
        {},
        {}
    ],
    "scenes": [
        {
            "nodes": [
                0,
                1
            ],
            "name": "scene"
        }
    ],
    "textures": [
        {
            "name": "triceratops_mat::baseColor::image",
            "sampler": 0,
            "source": 0
        },
        {
            "name": "image",
            "sampler": 1,
            "source": 1
        },
        {
            "name": "triceratops_mat::normal::image",
            "sampler": 2,
            "source": 2
        }
    ],
    "scene": 0
}