{
    "asset": {
        "copyright": "2020 (c) Adobe Inc.",
        "generator": "Adobe Dimension - 5769982f30ff13dfba89076b81240843d8e6af81",
        "version": "2.0",
        "extensions": {
            "KHR_xmp": {
                "packet": 0
            }
        }
    },
    "accessors": [
        {
            "bufferView": 0,
            "componentType": 5126,
            "count": 3358,
            "type": "VEC3",
            "max": [
                0.03675200045108795,
                0.13537698984146119,
                0.03675200045108795
            ],
            "min": [
                -0.03675200045108795,
                0.0030269999988377096,
                -0.03675200045108795
            ]
        },
        {
            "bufferView": 1,
            "componentType": 5126,
            "count": 3358,
            "type": "VEC3"
        },
        {
            "bufferView": 2,
            "componentType": 5126,
            "count": 3358,
            "type": "VEC2"
        },
        {
            "bufferView": 3,
            "componentType": 5125,
            "count": 17568,
            "type": "SCALAR",
            "max": [
                3357.0
            ],
            "min": [
                0.0
            ]
        },
        {
            "bufferView": 4,
            "componentType": 5126,
            "count": 128320,
            "type": "VEC3",
            "max": [
                0.03825199976563454,
                0.13673199713230134,
                0.03825199976563454
            ],
            "min": [
                -0.03825199976563454,
                0.000048000001697801056,
                -0.03825199976563454
            ]
        },
        {
            "bufferView": 5,
            "componentType": 5126,
            "count": 128320,
            "type": "VEC3"
        },
        {
            "bufferView": 6,
            "componentType": 5126,
            "count": 128320,
            "type": "VEC2"
        },
        {
            "bufferView": 7,
            "componentType": 5125,
            "count": 754176,
            "type": "SCALAR",
            "max": [
                128319.0
            ],
            "min": [
                0.0
            ]
        },
        {
            "bufferView": 8,
            "componentType": 5126,
            "count": 86274,
            "type": "VEC3",
            "max": [
                0.03528499975800514,
                0.14751499891281129,
                0.03528499975800514
            ],
            "min": [
                -0.03528499975800514,
                0.13563799858093263,
                -0.03528499975800514
            ]
        },
        {
            "bufferView": 9,
            "componentType": 5126,
            "count": 86274,
            "type": "VEC3"
        },
        {
            "bufferView": 10,
            "componentType": 5126,
            "count": 86274,
            "type": "VEC2"
        },
        {
            "bufferView": 11,
            "componentType": 5125,
            "count": 516096,
            "type": "SCALAR",
            "max": [
                86273.0
            ],
            "min": [
                0.0
            ]
        },
        {
            "bufferView": 12,
            "componentType": 5126,
            "count": 390,
            "type": "VEC3",
            "max": [
                0.03908299654722214,
                0.10442399978637696,
                0.03908299654722214
            ],
            "min": [
                -0.03908299654722214,
                0.029423998668789865,
                -0.03908299654722214
            ]
        },
        {
            "bufferView": 13,
            "componentType": 5126,
            "count": 390,
            "type": "VEC3"
        },
        {
            "bufferView": 14,
            "componentType": 5126,
            "count": 390,
            "type": "VEC2"
        },
        {
            "bufferView": 15,
            "componentType": 5125,
            "count": 1920,
            "type": "SCALAR",
            "max": [
                389.0
            ],
            "min": [
                0.0
            ]
        }
    ],
    "bufferViews": [
        {
            "buffer": 0,
            "byteOffset": 0,
            "byteLength": 40296,
            "target": 34962
        },
        {
            "buffer": 0,
            "byteOffset": 40296,
            "byteLength": 40296,
            "target": 34962
        },
        {
            "buffer": 0,
            "byteOffset": 80592,
            "byteLength": 26864,
            "target": 34962
        },
        {
            "buffer": 0,
            "byteOffset": 107456,
            "byteLength": 70272,
            "target": 34963
        },
        {
            "buffer": 0,
            "byteOffset": 177728,
            "byteLength": 1539840,
            "target": 34962
        },
        {
            "buffer": 0,
            "byteOffset": 1717568,
            "byteLength": 1539840,
            "target": 34962
        },
        {
            "buffer": 0,
            "byteOffset": 3257408,
            "byteLength": 1026560,
            "target": 34962
        },
        {
            "buffer": 0,
            "byteOffset": 4283968,
            "byteLength": 3016704,
            "target": 34963
        },
        {
            "buffer": 0,
            "byteOffset": 7300672,
            "byteLength": 1035288,
            "target": 34962
        },
        {
            "buffer": 0,
            "byteOffset": 8335960,
            "byteLength": 1035288,
            "target": 34962
        },
        {
            "buffer": 0,
            "byteOffset": 9371248,
            "byteLength": 690192,
            "target": 34962
        },
        {
            "buffer": 0,
            "byteOffset": 10061440,
            "byteLength": 2064384,
            "target": 34963
        },
        {
            "buffer": 0,
            "byteOffset": 12125824,
            "byteLength": 4680,
            "target": 34962
        },
        {
            "buffer": 0,
            "byteOffset": 12130504,
            "byteLength": 4680,
            "target": 34962
        },
        {
            "buffer": 0,
            "byteOffset": 12135184,
            "byteLength": 3120,
            "target": 34962
        },
        {
            "buffer": 0,
            "byteOffset": 12138304,
            "byteLength": 7680,
            "target": 34963
        }
    ],
    "buffers": [
        {
            "byteLength": 12145984,
            "uri": "barattolopestoGLTF_binary.bin"
        }
    ],
    "cameras": [
        {
            "perspective": {
                "znear": 0.000010000000656873454,
                "yfov": 0.6024156808853149,
                "zfar": 2.0,
                "aspectRatio": 1.3333333730697632
            },
            "type": "perspective",
            "name": "render_camera"
        }
    ],
    "images": [
        {
            "name": "text_pesto2",
            "uri": "barattolopestoGLTF_images\\text_pesto2.jpg",
            "mimeType": "image/jpeg"
        },
        {
            "name": "composited_baseColor",
            "uri": "barattolopestoGLTF_images\\composited_baseColor.jpg",
            "mimeType": "image/jpeg"
        },
        {
            "name": "composited_roughness",
            "uri": "barattolopestoGLTF_images\\composited_roughness.png",
            "mimeType": "image/png"
        },
        {
            "name": "813sMrbg3BL",
            "uri": "barattolopestoGLTF_images\\813sMrbg3BL.jpg",
            "mimeType": "image/jpeg"
        }
    ],
    "materials": [
        {
            "pbrMetallicRoughness": {
                "baseColorTexture": {
                    "index": 0
                },
                "metallicFactor": 0.0,
                "roughnessFactor": 0.20999999344348908
            },
            "name": "Material__48",
            "doubleSided": true
        },
        {
            "pbrMetallicRoughness": {
                "baseColorFactor": [
                    0.4341535270214081,
                    0.4341535270214081,
                    0.4341535270214081,
                    0.25
                ],
                "metallicFactor": 0.029999999329447748,
                "roughnessFactor": 0.30000001192092898
            },
            "alphaMode": "BLEND",
            "name": "Vetro",
            "doubleSided": true
        },
        {
            "pbrMetallicRoughness": {
                "baseColorTexture": {
                    "index": 1
                },
                "metallicFactor": 0.0,
                "metallicRoughnessTexture": {
                    "index": 2
                }
            },
            "name": "_tomato_sauce_jarcover_Mat",
            "doubleSided": true
        },
        {
            "pbrMetallicRoughness": {
                "baseColorTexture": {
                    "index": 3
                },
                "metallicFactor": 0.0,
                "roughnessFactor": 0.6000000238418579
            },
            "name": "Material__47",
            "doubleSided": true
        }
    ],
    "meshes": [
        {
            "name": "tomato_sauce_jar 2",
            "primitives": [
                {
                    "attributes": {
                        "NORMAL": 1,
                        "POSITION": 0,
                        "TEXCOORD_0": 2
                    },
                    "indices": 3,
                    "material": 0
                }
            ]
        },
        {
            "name": "esterno",
            "primitives": [
                {
                    "attributes": {
                        "POSITION": 4,
                        "NORMAL": 5,
                        "TEXCOORD_0": 6
                    },
                    "indices": 7,
                    "material": 1
                }
            ]
        },
        {
            "name": "tappo",
            "primitives": [
                {
                    "attributes": {
                        "NORMAL": 9,
                        "POSITION": 8,
                        "TEXCOORD_0": 10
                    },
                    "indices": 11,
                    "material": 2
                }
            ]
        },
        {
            "name": "Cylinder003",
            "primitives": [
                {
                    "attributes": {
                        "POSITION": 12,
                        "NORMAL": 13,
                        "TEXCOORD_0": 14
                    },
                    "indices": 15,
                    "material": 3
                }
            ]
        }
    ],
    "nodes": [
        {
            "translation": [
                -0.1934610903263092,
                0.12674430012702943,
                0.19952858984470368
            ],
            "rotation": [
                -0.09768728166818619,
                -0.37672653794288638,
                -0.03998902067542076,
                0.9202908277511597
            ],
            "scale": [
                1.0,
                0.9999999403953552,
                1.0
            ],
            "camera": 0,
            "name": "render_camera_n3d"
        },
        {
            "children": [
                2,
                3,
                4
            ],
            "name": "modello2"
        },
        {
            "mesh": 0,
            "name": "pesto"
        },
        {
            "mesh": 1,
            "name": "esterno"
        },
        {
            "mesh": 2,
            "name": "tappo"
        },
        {
            "mesh": 3,
            "name": "Cylinder003"
        }
    ],
    "samplers": [
        {},
        {},
        {},
        {}
    ],
    "scenes": [
        {
            "nodes": [
                0,
                1,
                5
            ],
            "name": "scene"
        }
    ],
    "textures": [
        {
            "name": "texture184350",
            "sampler": 0,
            "source": 0
        },
        {
            "name": "composited_baseColor",
            "sampler": 1,
            "source": 1
        },
        {
            "name": "composited_roughness",
            "sampler": 2,
            "source": 2
        },
        {
            "name": "Material__47::baseColor::image",
            "sampler": 3,
            "source": 3
        }
    ],
    "scene": 0,
    "extensions": {
        "KHR_xmp": {
            "@context": {
                "dc": "http://purl.org/dc/elements/1.1/"
            },
            "packets": [
                {
                    "dc:date": "2020-06-29T17:28:09.159+02:00",
                    "dc:format": "model/gltf+json",
                    "dc:title": "dimension.dn",
                    "xmp:CreatorTool": "AdobeDCXTest"
                }
            ]
        }
    },
    "extensionsUsed": [
        "KHR_xmp"
    ]
}